<svg width="200" height="200" viewBox="0 0 200 200" fill="none" xmlns="http://www.w3.org/2000/svg">
  <!-- Outer ring -->
  <circle cx="100" cy="100" r="80" fill="none" stroke="#9c27b0" stroke-width="20"/>

  <!-- Middle ring -->
  <circle cx="100" cy="100" r="60" fill="none" stroke="#9c27b0" stroke-width="12"/>

  <!-- Inner oval -->
  <ellipse cx="100" cy="100" rx="25" ry="45" fill="none" stroke="#9c27b0" stroke-width="8"/>

  <!-- Left arc -->
  <path d="M 75 100 A 25 25 0 0 1 100 75 A 25 25 0 0 1 125 100 A 25 25 0 0 1 100 125 A 25 25 0 0 1 75 100 Z" fill="#9c27b0"/>

  <!-- Right gap -->
  <path d="M 125 100 A 25 25 0 0 0 100 75 A 25 25 0 0 0 75 100 A 25 25 0 0 0 100 125 A 25 25 0 0 0 125 100 Z" fill="white"/>

  <!-- Central vertical line -->
  <line x1="100" y1="30" x2="100" y2="170" stroke="white" stroke-width="4"/>
</svg>